<svg xmlns="http://www.w3.org/2000/svg" width="24" height="24" viewBox="0 0 24 24">
    <g fill="none">
        <path fill="#ffef5e" d="M12 23c6.075 0 11-4.925 11-11S18.075 1 12 1S1 5.925 1 12s4.925 11 11 11" />
        <path fill="#fff9bf"
            d="M12 4.826a11.8 11.8 0 0 1 10.994 7.517c0-.114.006-.228.006-.343a11 11 0 1 0-21.994.343A11.8 11.8 0 0 1 12 4.826" />
        <path stroke="#191919" stroke-linecap="round" stroke-linejoin="round"
            d="M12 23c6.075 0 11-4.925 11-11S18.075 1 12 1S1 5.925 1 12s4.925 11 11 11" stroke-width="1" />
        <path stroke="#191919" stroke-linecap="round" stroke-linejoin="round"
            d="M7.696 18.696a4.304 4.304 0 1 1 8.609 0" stroke-width="1" />
        <path stroke="#191919"
            d="M6.74 10.326a.24.24 0 0 1 0-.478m0 .478a.24.24 0 0 0 0-.478m10.522.478a.24.24 0 0 1 0-.478m0 .478a.24.24 0 0 0 0-.478"
            stroke-width="1" />
    </g>
</svg>